<svg width="17" height="19" viewBox="0 0 17 19" fill="none" xmlns="http://www.w3.org/2000/svg">
<path d="M13.8238 4.75897C13.8238 4.38567 13.5179 4.07812 13.1419 4.07812H4.44856C4.07465 4.07812 3.7666 4.38355 3.7666 4.75897C3.7666 5.13227 4.07253 5.43981 4.44856 5.43981H13.1419C13.5179 5.43981 13.8238 5.13227 13.8238 4.75897ZM4.44856 8.14834C4.07465 8.14834 3.7666 8.45377 3.7666 8.82919C3.7666 9.20248 4.07253 9.51003 4.44856 9.51003H8.50842C8.88445 9.51003 9.19249 9.2046 9.19037 8.82919C9.19037 8.45589 8.88445 8.14834 8.50842 8.14834H4.44856ZM14.2254 15.1222C14.1807 15.0777 14.1319 15.0395 14.0788 15.0119C14.4633 14.4647 14.6885 13.8008 14.6885 13.0839C14.6885 11.2132 13.1504 9.6988 11.2532 9.6988C9.35608 9.6988 7.81796 11.2132 7.81796 13.0839C7.81796 14.9547 9.35608 16.4691 11.2532 16.4691C11.9479 16.4691 12.5959 16.2654 13.1376 15.9155C13.1695 15.977 13.2099 16.0343 13.2609 16.0852L15.0305 17.852C15.2961 18.1171 15.7295 18.1171 15.995 17.852C16.2606 17.5868 16.2606 17.1541 15.995 16.889L14.2254 15.1222ZM11.2532 15.1349C10.1039 15.1349 9.17125 14.2165 9.17125 13.0839C9.17125 11.9513 10.1039 11.0329 11.2532 11.0329C12.4026 11.0329 13.3352 11.9513 13.3352 13.0839C13.3352 14.2165 12.4047 15.1349 11.2532 15.1349Z" fill="#12D6DB"/>
<path d="M10.2102 17.6383H2.63859C1.89078 17.6383 1.27893 17.0275 1.27893 16.2809V2.7361C1.27893 1.98951 1.89078 1.37866 2.63859 1.37866H14.2658C15.0136 1.37866 15.6255 1.98951 15.6255 2.7361V9.4894H15.6318V9.49152C15.6318 9.86693 15.9378 10.1724 16.3159 10.1724C16.6941 10.1724 17 9.86693 17 9.49152C17 9.46606 16.9979 9.44273 16.9958 9.41728V2.71489C16.9958 1.2217 16.4094 0 14.9138 0H2.71932C1.22369 0 0 1.2217 0 2.71489V16.2851C0 17.7783 1.22369 19 2.71932 19H10.2017C10.5799 19 10.8858 18.6946 10.8858 18.3192C10.8858 17.9459 10.5841 17.6426 10.2102 17.6383Z" fill="#12D6DB"/>
<path d="M15.6299 12.2062C15.6299 12.3868 15.702 12.56 15.8302 12.6877C15.9585 12.8153 16.1325 12.8871 16.314 12.8871C16.4954 12.8871 16.6694 12.8153 16.7977 12.6877C16.926 12.56 16.998 12.3868 16.998 12.2062C16.998 12.0257 16.926 11.8525 16.7977 11.7248C16.6694 11.5971 16.4954 11.5254 16.314 11.5254C16.1325 11.5254 15.9585 11.5971 15.8302 11.7248C15.702 11.8525 15.6299 12.0257 15.6299 12.2062Z" fill="#12D6DB"/>
</svg>
